<?xml version="1.0" encoding="UTF-8"?><!-- TASA-Ed logo © 2021 by ccD2s is licensed under CC BY-SA 4.0. To view a copy of this license, visit https://creativecommons.org/licenses/by-sa/4.0/ --><svg xmlns="http://www.w3.org/2000/svg" viewBox="0 0 13 13"><defs><style>.cls-1{fill:aqua;}.cls-2{fill:#fff;}.cls-3{fill:#999;}.cls-4{fill:#a8a8a8;}.cls-5{fill:#f90;}.cls-6{fill:#0f6;}.cls-7{fill:#ff0;}</style></defs><g id="rainbow"><rect class="cls-5" x=".75" y=".75" width="11.499999999" height="11.500000001"/><rect class="cls-7" x="2" y="2" width="9" height="9"/><rect class="cls-6" x="3" y="3" width="7" height="7"/><rect class="cls-1" x="4" y="4" width="5" height="5.000000001"/><rect class="cls-4" x="5" y="5" width="3" height="3"/></g><g id="halfx"><polygon class="cls-3" points="12 1 11 1 11 2 12 2 12 1 12 1"/><polygon class="cls-3" points="11 2 10 2 10 3 11 3 11 2 11 2"/><polygon class="cls-3" points="10 3 9 3 9 4 10 4 10 3 10 3"/><polygon class="cls-3" points="9 4 8 4 8 5 9 5 9 4 9 4"/><polygon class="cls-3" points="5 8 4 8 4 9 5 9 5 8 5 8"/><polygon class="cls-3" points="4 9 3 9 3 10 4 10 4 9 4 9"/><polygon class="cls-3" points="3 10 2 10 2 11 3 11 3 10 3 10"/><polygon class="cls-3" points="2 11 1 11 1 12 2 12 2 11 2 11"/><polygon class="cls-3" points="12 11 11 11 11 12 12 12 12 11 12 11"/><polygon class="cls-3" points="11 10 10 10 10 11 11 11 11 10 11 10"/><polygon class="cls-3" points="10 9 9 9 9 10 10 10 10 9 10 9"/><polygon class="cls-3" points="9 8 8 8 8 9 9 9 9 8 9 8"/><polygon class="cls-3" points="5 4 4 4 4 5 5 5 5 4 5 4"/><polygon class="cls-3" points="4 3 3 3 3 4 4 4 4 3 4 3"/><polygon class="cls-3" points="3 2 2 2 2 3 3 3 3 2 3 2"/><polygon class="cls-3" points="2 1 1 1 1 2 2 2 2 1 2 1"/></g><g id="cross"><path d="M0,0v13h13V0H0ZM12,6h-5V1h5v5ZM6,1v5H1V1h5ZM1,7h5v5H1v-5ZM7,12v-5h5v5h-5Z"/></g><g id="tlogo"><polygon class="cls-2" points="9 3 4 3 4 4 6 4 6 9 7 9 7 4 9 4 9 3"/></g></svg>