<?xml version="1.0" encoding="UTF-8"?><!-- TASA-Ed logo © 2021 by ccD2s is licensed under CC BY-SA 4.0. To view a copy of this license, visit https://creativecommons.org/licenses/by-sa/4.0/ --><svg xmlns="http://www.w3.org/2000/svg" viewBox="0 0 13 13"><defs><style>.cls-1{fill:aqua;}.cls-2{fill:#fff;}.cls-3{fill:#999;}.cls-4{fill:#a8a8a8;}.cls-5{fill:#f90;}.cls-6{fill:#0f6;}.cls-7{fill:#ff0;}</style></defs><g id="rainbow"><path class="cls-5" d="M11,2v9H2V2h9M12,1H1v11h11V1Z"/><path class="cls-7" d="M10,3v7H3V3h7M11,2H2v9h9V2Z"/><path class="cls-6" d="M9,4v5h-5v-5h5M10,3H3v7h7V3Z"/><path class="cls-1" d="M8,5v3h-3v-3h3M9,4h-5v5h5v-5Z"/><path class="cls-4" d="M7,6v1h-1v-1h1M8,5h-3v3h3v-3Z"/></g><g id="halfx"><polygon class="cls-3" points="12 1 11 1 11 2 12 2 12 1 12 1"/><polygon class="cls-3" points="11 2 10 2 10 3 11 3 11 2 11 2"/><polygon class="cls-3" points="10 3 9 3 9 4 10 4 10 3 10 3"/><polygon class="cls-3" points="9 4 8 4 8 5 9 5 9 4 9 4"/><polygon class="cls-3" points="5 8 4 8 4 9 5 9 5 8 5 8"/><polygon class="cls-3" points="4 9 3 9 3 10 4 10 4 9 4 9"/><polygon class="cls-3" points="3 10 2 10 2 11 3 11 3 10 3 10"/><polygon class="cls-3" points="2 11 1 11 1 12 2 12 2 11 2 11"/><polygon class="cls-3" points="12 11 11 11 11 12 12 12 12 11 12 11"/><polygon class="cls-3" points="11 10 10 10 10 11 11 11 11 10 11 10"/><polygon class="cls-3" points="10 9 9 9 9 10 10 10 10 9 10 9"/><polygon class="cls-3" points="9 8 8 8 8 9 9 9 9 8 9 8"/><polygon class="cls-3" points="5 4 4 4 4 5 5 5 5 4 5 4"/><polygon class="cls-3" points="4 3 3 3 3 4 4 4 4 3 4 3"/><polygon class="cls-3" points="3 2 2 2 2 3 3 3 3 2 3 2"/><polygon class="cls-3" points="2 1 1 1 1 2 2 2 2 1 2 1"/></g><g id="cross"><polygon points="7 .75 6 .75 6 12.25 7 12.25 7 .75 7 .75"/><path d="M12,1v11H1V1h11M13,0H0v13h13V0Z"/><polygon points="12.25 6 .75 6 .75 7 12.25 7 12.25 6 12.25 6"/></g><g id="tlogo"><polygon class="cls-2" points="9 3 4 3 4 4 9 4 9 3 9 3"/><polygon class="cls-2" points="7 3.5 6 3.5 6 9 7 9 7 3.5 7 3.5"/></g></svg>